<svg xmlns="http://www.w3.org/2000/svg" data-name="Kid avatar" viewBox="0 0 64 64"><path fill="#3e3d42" d="M38,48V29H14V21a18,18,0,0,1,36,0V40l3,13Z"/><path fill="#e28086" d="M50,61H14l.43-6.6A12,12,0,0,1,26.415,43h11.17A12,12,0,0,1,49.57,54.4Z"/><circle cx="47" cy="10" r="6" fill="#3e3d42"/><path fill="#ffcbbe" d="M19 32H16.5A3.5 3.5 0 0 1 13 28.5h0A3.5 3.5 0 0 1 16.5 25H19zM45 32h2.5A3.5 3.5 0 0 0 51 28.5h0A3.5 3.5 0 0 0 47.5 25H45z"/><path fill="#ffddce" d="M32,44h0A14,14,0,0,1,18,30V22h9a8,8,0,0,0,8-8h0l5,8,2-5,1.5,3.743A2,2,0,0,0,45.354,22H46v8A14,14,0,0,1,32,44Z"/><path fill="#ffcbbe" d="M32,44a13.846,13.846,0,0,0,5.93-1.32c-.02.11-.05.21-.08.32C36.94,46.49,32,52,32,52s-4.94-5.51-5.85-9c-.03-.11-.06-.21-.08-.32A13.846,13.846,0,0,0,32,44Z"/><path fill="#dd636e" d="M41.78,43.76a2.1,2.1,0,0,1-.06.24c-1.1,4.22-5.81,9.63-6.74,10.67L32,57.99l-2.98-3.32c-.93-1.04-5.64-6.45-6.74-10.66a2.268,2.268,0,0,1-.06-.25A11.683,11.683,0,0,1,26.15,43c.91,3.49,5.85,9,5.85,9s4.94-5.51,5.85-9A11.683,11.683,0,0,1,41.78,43.76Z"/><path d="M51,39.89v-8.6a4.392,4.392,0,0,0,0-5.58V21a18.813,18.813,0,0,0-.65-4.87A6.991,6.991,0,1,0,42.16,4.95,18.993,18.993,0,0,0,13,21v4.71a4.412,4.412,0,0,0-1,2.79A4.507,4.507,0,0,0,16.5,33h.8a15.051,15.051,0,0,0,6.19,9.34A13.07,13.07,0,0,0,13.43,54.33L13,60.94A1.008,1.008,0,0,0,14,62H50a1.008,1.008,0,0,0,1-1.06l-.43-6.59a10.467,10.467,0,0,0-.12-1.14l2.23.74A1.185,1.185,0,0,0,53,54a1,1,0,0,0,.97-1.23ZM47,5a4.99,4.99,0,0,1,2.72,9.18,19,19,0,0,0-4.28-6.62,21.247,21.247,0,0,0-1.61-1.42A4.945,4.945,0,0,1,47,5Zm3,23.5A2.5,2.5,0,0,1,47.5,31h-.55c.02-.33.05-.66.05-1V26h.5A2.509,2.509,0,0,1,50,28.5ZM16.5,31A2.5,2.5,0,0,1,14,28.5,2.509,2.509,0,0,1,16.5,26H17v4c0,.34.03.67.05,1Zm.5-9v2h-.5a4.472,4.472,0,0,0-1.5.27V21a17,17,0,0,1,34,0v3.27A4.472,4.472,0,0,0,47.5,24H47V22a1,1,0,0,0-1-1h-.65a.986.986,0,0,1-.92-.63l-1.5-3.74a1,1,0,0,0-1.86,0L39.8,19.8l-3.95-6.33a1.011,1.011,0,0,0-1.13-.43A1,1,0,0,0,34,14a7.008,7.008,0,0,1-7,7H18A1,1,0,0,0,17,22Zm2,8V23h8a9.01,9.01,0,0,0,8.56-6.22l3.59,5.75a1.009,1.009,0,0,0,.94.47,1.024,1.024,0,0,0,.84-.63L42,19.69l.57,1.42A2.972,2.972,0,0,0,45,22.98V30a13,13,0,0,1-26,0ZM36.22,44.38A35.247,35.247,0,0,1,32,50.46a35.46,35.46,0,0,1-4.21-6.07A15.035,15.035,0,0,0,32,45,14.7,14.7,0,0,0,36.22,44.38Zm-10.78-.33c1.37,3.63,5.62,8.4,5.82,8.62a.995.995,0,0,0,1.48,0c.2-.22,4.42-4.95,5.81-8.62a11.031,11.031,0,0,1,2,.37c-1.33,3.89-5.46,8.63-6.32,9.58L32,56.49,29.77,54c-.86-.95-4.98-5.68-6.32-9.58A10.923,10.923,0,0,1,25.44,44.05ZM15.07,60l.36-5.55a11.061,11.061,0,0,1,6.15-9.31c1.5,4.26,5.8,9.2,6.7,10.2l2.98,3.32a.995.995,0,0,0,1.48,0l2.98-3.32c.9-1,5.2-5.94,6.7-10.2a11.043,11.043,0,0,1,6.15,9.32L48.93,60Zm34.84-9.08a13.092,13.092,0,0,0-9.4-8.58A15.051,15.051,0,0,0,46.7,33h.8a4.39,4.39,0,0,0,1.5-.28V40a.908.908,0,0,0,.03.23l2.59,11.26Z"/><path d="M26 29a1 1 0 0 0 1-1V26a1 1 0 0 0-2 0v2A1 1 0 0 0 26 29zM38 29a1 1 0 0 0 1-1V26a1 1 0 0 0-2 0v2A1 1 0 0 0 38 29zM39 34H37c0 1.626-2.29 3-5 3s-5-1.374-5-3H25c0 2.8 3.075 5 7 5S39 36.8 39 34z"/></svg>